<mxfile host="app.diagrams.net" agent="Mozilla/5.0 (X11; Linux x86_64; rv:136.0) Gecko/20100101 Firefox/136.0" border="50" scale="3" compressed="false" locked="false" version="26.2.14">
  <diagram name="Blank" id="YmL12bMKpDGza6XwsDPr">
    <mxGraphModel dx="2226" dy="754" grid="0" gridSize="10" guides="1" tooltips="1" connect="1" arrows="1" fold="1" page="0" pageScale="1" pageWidth="827" pageHeight="1169" background="none" math="1" shadow="0">
      <root>
        <mxCell id="X5NqExCQtvZxIxQ7pmgY-0" />
        <mxCell id="1" parent="X5NqExCQtvZxIxQ7pmgY-0" />
        <object label="" placeholders="1" subnet="" id="Gr0Zq-AI6Quabplr0KPa-98">
          <mxCell style="ellipse;whiteSpace=wrap;html=1;strokeWidth=2;fillColor=#EDF5FF;fontSize=15;strokeColor=none;container=1;verticalAlign=top;spacingBottom=0;spacingTop=4;fontStyle=1;fontColor=#7EA6E0;metaEdit=1;" parent="1" vertex="1">
            <mxGeometry x="-653" y="210" width="623" height="467" as="geometry">
              <mxRectangle x="-576" y="218" width="250" height="60" as="alternateBounds" />
            </mxGeometry>
          </mxCell>
        </object>
        <mxCell id="Gr0Zq-AI6Quabplr0KPa-105" value="Receptor" style="image;html=1;image=https://ae01.alicdn.com/kf/Sbe75b36744444e7eb71941693e8e4e2ee.jpg_640x640q90.jpg;strokeColor=none;strokeWidth=2;fillColor=#EDF5FF;movable=1;resizable=1;rotatable=1;deletable=1;editable=1;locked=0;connectable=1;align=center;" parent="Gr0Zq-AI6Quabplr0KPa-98" vertex="1">
          <mxGeometry x="27.996442307692305" y="168.99569131832794" width="119.80769230769232" height="120.12861736334403" as="geometry" />
        </mxCell>
        <mxCell id="Gr0Zq-AI6Quabplr0KPa-106" style="edgeStyle=none;curved=1;html=1;strokeWidth=2;fontSize=12;endArrow=none;endFill=0;rounded=0;fontColor=#0A3DA3;strokeColor=#0A3DA3;startSize=8;endSize=8;" parent="Gr0Zq-AI6Quabplr0KPa-98" source="w-qXGrqkFpa8l1D213sV-1" target="Gr0Zq-AI6Quabplr0KPa-105" edge="1">
          <mxGeometry relative="1" as="geometry">
            <mxPoint x="341.45192307692315" y="375.4019292604501" as="targetPoint" />
            <mxPoint x="570.5841346153846" y="364.16767893295213" as="sourcePoint" />
          </mxGeometry>
        </mxCell>
        <mxCell id="w-qXGrqkFpa8l1D213sV-20" style="edgeStyle=orthogonalEdgeStyle;rounded=0;orthogonalLoop=1;jettySize=auto;html=1;entryX=1;entryY=1;entryDx=0;entryDy=0;fontFamily=Helvetica;fontSize=12;fontColor=default;labelBackgroundColor=default;resizable=1;" edge="1" parent="Gr0Zq-AI6Quabplr0KPa-98" source="w-qXGrqkFpa8l1D213sV-3" target="w-qXGrqkFpa8l1D213sV-8">
          <mxGeometry relative="1" as="geometry" />
        </mxCell>
        <mxCell id="w-qXGrqkFpa8l1D213sV-3" value="&lt;div&gt;Data/Hora&lt;/div&gt;&lt;div&gt;Lat/Long&lt;/div&gt;&lt;div&gt;Temp/Umid&lt;/div&gt;&lt;div&gt;CO&lt;/div&gt;&lt;div&gt;CO2&lt;/div&gt;" style="text;html=1;align=center;verticalAlign=middle;whiteSpace=wrap;rounded=0;fontFamily=Helvetica;fontSize=12;labelBackgroundColor=default;resizable=1;fillColor=#e1d5e7;strokeColor=#9673a6;gradientColor=default;strokeWidth=5;glass=0;shadow=0;" vertex="1" parent="Gr0Zq-AI6Quabplr0KPa-98">
          <mxGeometry x="508.99653846153853" y="101.99681672025721" width="89.85576923076923" height="64.56913183279742" as="geometry" />
        </mxCell>
        <mxCell id="w-qXGrqkFpa8l1D213sV-1" value="Transmissor" style="image;html=1;image=https://ae01.alicdn.com/kf/Sbe75b36744444e7eb71941693e8e4e2ee.jpg_640x640q90.jpg;strokeColor=none;strokeWidth=2;fillColor=#EDF5FF;labelBorderColor=none;fontColor=#3333FF;" vertex="1" parent="Gr0Zq-AI6Quabplr0KPa-98">
          <mxGeometry x="269" y="186" width="90" height="79.78" as="geometry" />
        </mxCell>
        <mxCell id="w-qXGrqkFpa8l1D213sV-8" value="&lt;div&gt;HELTEC&lt;/div&gt;&lt;div&gt;M07&lt;/div&gt;&lt;div&gt;DHT11&lt;/div&gt;&lt;div&gt;64neo6MV2&lt;/div&gt;&lt;div&gt;mq135&lt;/div&gt;" style="text;html=1;align=center;verticalAlign=middle;whiteSpace=wrap;rounded=0;fontFamily=Helvetica;fontSize=12;labelBackgroundColor=default;resizable=1;fillColor=#e1d5e7;strokeColor=#9673a6;gradientColor=default;strokeWidth=5;glass=0;shadow=0;" vertex="1" parent="Gr0Zq-AI6Quabplr0KPa-98">
          <mxGeometry x="407" y="39" width="68" height="43" as="geometry" />
        </mxCell>
        <mxCell id="w-qXGrqkFpa8l1D213sV-23" style="edgeStyle=orthogonalEdgeStyle;rounded=0;orthogonalLoop=1;jettySize=auto;html=1;fontFamily=Helvetica;fontSize=12;fontColor=default;labelBackgroundColor=default;resizable=1;" edge="1" parent="Gr0Zq-AI6Quabplr0KPa-98" source="w-qXGrqkFpa8l1D213sV-10" target="w-qXGrqkFpa8l1D213sV-3">
          <mxGeometry relative="1" as="geometry" />
        </mxCell>
        <mxCell id="w-qXGrqkFpa8l1D213sV-10" value="TV BOX" style="image;html=1;image=https://images.tcdn.com.br/img/img_prod/1086247/tv_box_4k_mxq_pro_64_gb_de_memoria_interna_4_gb_de_ram_android_10_1_629_1_d8e1cae44c00c8eb872b58302aa91cd6.jpg;strokeColor=none;strokeWidth=2;fillColor=#EDF5FF;" vertex="1" parent="Gr0Zq-AI6Quabplr0KPa-98">
          <mxGeometry x="361.99653846153853" y="174.83508038585208" width="97.34375" height="102.10932475884243" as="geometry" />
        </mxCell>
        <mxCell id="w-qXGrqkFpa8l1D213sV-21" value="" style="edgeStyle=orthogonalEdgeStyle;rounded=0;orthogonalLoop=1;jettySize=auto;html=1;fontFamily=Helvetica;fontSize=12;fontColor=default;labelBackgroundColor=default;resizable=1;" edge="1" parent="Gr0Zq-AI6Quabplr0KPa-98" source="w-qXGrqkFpa8l1D213sV-1" target="w-qXGrqkFpa8l1D213sV-10">
          <mxGeometry relative="1" as="geometry">
            <mxPoint x="-363" y="436" as="sourcePoint" />
            <mxPoint x="-195" y="356" as="targetPoint" />
          </mxGeometry>
        </mxCell>
        <mxCell id="w-qXGrqkFpa8l1D213sV-15" value="&lt;div&gt;Banco de dados&lt;/div&gt;&lt;div&gt;(com armazenamento das variaveis)&lt;/div&gt;" style="image;html=1;image=https://icones.pro/wp-content/uploads/2021/05/icone-base-donnees-rouge.png;strokeColor=none;strokeWidth=2;fillColor=#EDF5FF;" vertex="1" parent="Gr0Zq-AI6Quabplr0KPa-98">
          <mxGeometry x="330.67" y="362" width="68" height="68" as="geometry" />
        </mxCell>
        <mxCell id="w-qXGrqkFpa8l1D213sV-17" style="edgeStyle=orthogonalEdgeStyle;rounded=0;orthogonalLoop=1;jettySize=auto;html=1;fontFamily=Helvetica;fontSize=12;fontColor=default;labelBackgroundColor=default;resizable=1;" edge="1" parent="Gr0Zq-AI6Quabplr0KPa-98" source="w-qXGrqkFpa8l1D213sV-10" target="w-qXGrqkFpa8l1D213sV-15">
          <mxGeometry relative="1" as="geometry">
            <mxPoint x="376" y="222" as="sourcePoint" />
          </mxGeometry>
        </mxCell>
        <mxCell id="w-qXGrqkFpa8l1D213sV-24" value="" style="image;html=1;image=https://icones.pro/wp-content/uploads/2021/05/icone-base-donnees-rouge.png;strokeColor=none;strokeWidth=2;fillColor=#EDF5FF;" vertex="1" parent="Gr0Zq-AI6Quabplr0KPa-98">
          <mxGeometry x="99.8" y="252" width="39" height="35" as="geometry" />
        </mxCell>
        <mxCell id="w-qXGrqkFpa8l1D213sV-25" value="\\Envia informações" style="text;html=1;align=center;verticalAlign=middle;whiteSpace=wrap;rounded=0;fontFamily=Helvetica;fontSize=12;fontColor=default;labelBackgroundColor=default;resizable=1;" vertex="1" parent="Gr0Zq-AI6Quabplr0KPa-98">
          <mxGeometry x="324" y="150" width="60" height="30" as="geometry" />
        </mxCell>
        <mxCell id="w-qXGrqkFpa8l1D213sV-26" value="Variaveis" style="text;html=1;align=center;verticalAlign=middle;whiteSpace=wrap;rounded=0;fontFamily=Helvetica;fontSize=12;fontColor=default;labelBackgroundColor=default;resizable=1;" vertex="1" parent="Gr0Zq-AI6Quabplr0KPa-98">
          <mxGeometry x="498" y="55" width="60" height="30" as="geometry" />
        </mxCell>
        <mxCell id="w-qXGrqkFpa8l1D213sV-27" value="Recebe os dados" style="text;html=1;align=center;verticalAlign=middle;whiteSpace=wrap;rounded=0;fontFamily=Helvetica;fontSize=12;fontColor=default;labelBackgroundColor=default;resizable=1;" vertex="1" parent="Gr0Zq-AI6Quabplr0KPa-98">
          <mxGeometry x="53" y="136.57" width="60" height="30" as="geometry" />
        </mxCell>
      </root>
    </mxGraphModel>
  </diagram>
</mxfile>
